<svg width="309" height="312" viewBox="0 0 309 312" fill="none" xmlns="http://www.w3.org/2000/svg">
<g clip-path="url(#clip0_3008_219202)">
<path d="M234.803 193.634C234.803 258.473 182.24 311.035 117.401 311.035C52.5624 311.035 0 258.473 0 193.634C0 128.795 52.5624 76.2324 117.401 76.2324C182.24 76.2324 234.803 128.795 234.803 193.634Z" fill="#F7C325"/>
<mask id="mask0_3008_219202" style="mask-type:alpha" maskUnits="userSpaceOnUse" x="0" y="76" width="235" height="236">
<path d="M234.803 193.634C234.803 258.473 182.24 311.035 117.401 311.035C52.5624 311.035 0 258.473 0 193.634C0 128.795 52.5624 76.2324 117.401 76.2324C182.24 76.2324 234.803 128.795 234.803 193.634Z" fill="#F7C325"/>
</mask>
<g mask="url(#mask0_3008_219202)">
<path d="M117.356 74.4847C148.945 74.5572 179.212 87.1758 201.498 109.564C223.784 131.953 236.264 162.278 236.191 193.867C236.119 225.457 223.5 255.724 201.112 278.01C178.723 300.296 148.398 312.775 116.809 312.703C85.2189 312.63 54.9518 300.012 32.6658 277.623C10.3798 255.235 -2.09956 224.91 -2.02703 193.32C-1.95449 161.731 10.664 131.464 33.0526 109.178C55.4412 86.8916 85.7659 74.4122 117.356 74.4847Z" fill="#F7C325"/>
<path fill-rule="evenodd" clip-rule="evenodd" d="M95.3766 76.4786L117.171 96.1861V117.74L89.9232 144.988V183.299H78.9965L62.5657 166.868H40.6724L40.9066 166.985V210.554H68.1371V199.662H100.814L112.082 210.243H149.829V260.658L110.391 297.692H93.4897V261.592L68.1371 237.785V221.447H35.4605L8.23 194.216V166.985V166.868H1.01119C-0.971159 175.477 -2.00447 184.345 -2.02508 193.32C-2.09761 224.91 10.3818 255.235 32.6678 277.623C54.9538 300.012 85.2208 312.63 116.811 312.703C148.4 312.775 178.725 300.296 201.113 278.01C202.195 276.933 203.254 275.838 204.29 274.725V213.277H168.89V169.709L182.505 156.093H209.736L223.351 169.709H233.774C231.226 157.258 226.702 145.307 220.391 134.309H207.013L190.674 117.971L177.059 131.586H157.998V117.971L171.613 104.355H195.974C174.339 85.2279 146.407 74.5514 117.357 74.4847C109.932 74.4676 102.576 75.1442 95.3766 76.4786Z" fill="white"/>
<path d="M93.4863 100.209L97.3096 97.3418L101.133 100.209" stroke="black" stroke-width="1.43373"/>
<path d="M68.502 91.6058L72.3252 88.7383L76.1485 91.6058" stroke="black" stroke-width="1.43373"/>
<path d="M78.9023 128.637L82.7256 125.77L86.5489 128.637" stroke="black" stroke-width="1.43373"/>
<path d="M93.9824 213.629L97.8057 210.762L101.629 213.629" stroke="black" stroke-width="1.43373"/>
<path d="M125.516 246.86L129.339 243.992L133.162 246.86" stroke="black" stroke-width="1.43373"/>
<path d="M116.453 262.836L120.276 259.969L124.1 262.836" stroke="black" stroke-width="1.43373"/>
<path d="M107.363 232.16L111.187 229.293L115.01 232.16" stroke="black" stroke-width="1.43373"/>
<path d="M185.848 182.957L189.671 180.09L193.494 182.957" stroke="black" stroke-width="1.43373"/>
<path d="M206.902 172.731L210.726 169.863L214.549 172.731" stroke="black" stroke-width="1.43373"/>
<path d="M210.725 185.512L214.548 182.645L218.371 185.512" stroke="black" stroke-width="1.43373"/>
<path d="M31.2246 160.426L35.0479 157.559L38.8712 160.426" stroke="black" stroke-width="1.43373"/>
<path d="M44.6055 151.823L48.4288 148.955L52.2521 151.823" stroke="black" stroke-width="1.43373"/>
<path d="M166.297 120.782L170.12 117.914L173.943 120.782" stroke="black" stroke-width="1.43373"/>
<path d="M186.436 112.055L190.259 109.188L194.082 112.055" stroke="black" stroke-width="1.43373"/>
</g>
<path d="M93.983 76.2324L100.421 65.0811H87.5448L93.983 76.2324Z" fill="white"/>
<rect x="66.623" y="32.3691" width="53.5261" height="32.7104" fill="white"/>
<path d="M86.5788 49.2202C86.5443 49.1858 86.4754 49.1342 86.4753 49.0654C86.4753 49.0138 86.4924 48.945 86.5438 48.8074C86.7491 48.0676 87.1609 47.345 87.5733 46.9494C87.8825 46.6397 88.2607 46.416 88.708 46.416C89.6716 46.416 90.2229 46.9149 90.2244 47.8612C90.2077 48.188 90.2077 48.2396 89.9164 49.0138C89.4538 50.2697 89.2654 50.8718 89.1631 51.4739C89.0948 51.8008 89.0609 52.1105 89.0613 52.3685C89.0625 53.1427 89.3556 53.5556 89.9062 53.5556C90.6976 53.5556 91.1269 53.0051 91.5046 52.4029L92.1544 49.788C92.599 47.9816 92.8214 47.1386 92.8556 47.0526C92.9929 46.7773 93.3023 46.5881 93.612 46.5881C93.9389 46.5881 94.1457 46.7773 94.1633 47.087C94.1637 47.3278 92.3678 54.347 92.3507 54.4158C91.734 56.205 90.1187 57.5296 88.5702 57.5296C87.6411 57.5296 86.9521 57.0479 86.7789 56.291C86.7615 56.205 86.7614 56.1361 86.7613 56.0501C86.7603 55.3964 87.138 54.8459 87.809 54.8459C88.1876 54.8459 88.4804 55.1039 88.4811 55.5168C88.4812 55.5856 88.4813 55.6372 88.4642 55.706C88.4128 55.8781 88.2927 56.0845 88.1896 56.205C88.0694 56.3082 87.863 56.377 87.7083 56.4802C87.9668 56.7383 88.139 56.8759 88.6208 56.8759C89.2402 56.8759 89.6011 56.6178 89.9447 56.2394C90.3742 55.7921 90.7345 55.1727 90.9743 54.4158C91.0771 54.1749 91.1625 53.7792 91.1625 53.7448C91.1625 53.7276 90.6298 54.1749 89.8211 54.1749C88.479 54.1749 87.738 53.4352 87.7361 52.1449C87.7355 51.7492 87.8036 51.2847 87.9576 50.7514C88.0603 50.4073 88.3172 49.5987 88.5913 48.8418C88.934 47.93 88.9853 47.7235 88.9849 47.4139C88.9844 47.1386 88.9327 47.0354 88.7262 47.0354C88.4509 47.0354 88.2446 47.1558 88.0385 47.3622C87.7465 47.6891 87.5235 48.1364 87.3181 48.8762C87.2497 49.1514 87.2325 49.1686 87.181 49.203C87.1638 49.2202 87.0262 49.2202 86.8541 49.2202H86.5788ZM96.5404 45.1602C96.0243 45.1602 95.6108 44.8161 95.61 44.2656C95.6086 43.4054 96.0722 42.7516 96.6395 42.4248C97.052 42.1495 97.6023 41.9431 98.084 41.8915C98.17 41.8915 98.3592 41.8743 98.5141 41.8743H98.5829C100.045 41.8743 101.113 42.356 101.562 43.2334C101.734 43.5602 101.821 43.9043 101.821 44.2484C101.823 45.0742 101.393 45.6591 100.878 46.0548C99.8465 46.7945 99.1425 47.7751 98.9204 48.7902C98.8521 49.117 98.8351 49.2719 98.836 49.8568C98.837 50.4933 98.837 50.5277 98.7339 50.5793C98.6823 50.5965 98.6135 50.5965 98.493 50.5965C98.2866 50.5965 98.2005 50.5793 98.166 50.5105C98.1487 50.4761 98.1484 50.2697 98.1476 49.7192C98.1799 48.3429 98.2995 47.8095 98.7626 46.8805C99.02 46.3816 99.2775 46.0032 99.6382 45.6075C100.05 45.1774 100.119 44.9365 100.118 44.1279L100.117 43.9043C100.117 43.3882 100.065 43.1129 99.806 42.8549C99.5476 42.6484 99.1345 42.5108 98.5495 42.5108C97.9129 42.5108 97.3797 42.6656 96.9501 42.9925C96.8642 43.0785 96.6236 43.3022 96.6237 43.3194C96.6237 43.3366 97.1399 43.3882 97.3298 43.7839C97.3988 43.9043 97.4508 44.1107 97.451 44.2484C97.4518 44.7817 97.0566 45.1602 96.5404 45.1602ZM98.5295 51.9212C99.0801 51.9728 99.5108 52.3169 99.5118 52.9535C99.5125 53.418 99.3236 53.676 99.0486 53.8308C98.8767 53.9513 98.7219 53.9857 98.4982 53.9857C98.2573 53.9857 98.1024 53.9513 97.9302 53.8308C97.6547 53.676 97.465 53.418 97.4643 52.9535C97.4633 52.2825 97.9273 51.9212 98.5295 51.9212Z" fill="black"/>
<rect x="220.682" y="77.1953" width="87.9357" height="37.2771" fill="white"/>
<path d="M243.621 62.8555L251.898 77.1928H235.343L243.621 62.8555Z" fill="white"/>
<path d="M230.135 95.4591C230.135 95.2494 230.053 95.1445 229.889 95.1445C229.682 95.1445 229.467 95.2662 229.242 95.5094C229.018 95.7527 228.832 96.126 228.686 96.6293C228.677 96.6377 228.668 96.6502 228.66 96.667C228.651 96.6838 228.647 96.6964 228.647 96.7048C228.647 96.7132 228.638 96.7215 228.621 96.7299C228.604 96.7383 228.591 96.7425 228.582 96.7425C228.573 96.7425 228.556 96.7425 228.53 96.7425C228.504 96.7425 228.47 96.7425 228.427 96.7425H228.246C228.194 96.6922 228.168 96.6544 228.168 96.6293C228.168 96.5706 228.202 96.4489 228.272 96.2644C228.341 96.0798 228.444 95.8617 228.582 95.6101C228.72 95.3584 228.91 95.1445 229.152 94.9684C229.393 94.7922 229.665 94.6999 229.967 94.6915C230.329 94.6915 230.61 94.7922 230.808 94.9935C231.007 95.1949 231.11 95.4297 231.119 95.6982C231.119 95.8408 231.106 95.9498 231.08 96.0253C231.08 96.0756 231.015 96.2602 230.886 96.5789C230.756 96.8977 230.623 97.271 230.485 97.6988C230.347 98.1266 230.269 98.4999 230.252 98.8187C230.252 99.0451 230.273 99.2297 230.316 99.3723C230.429 99.733 230.7 99.9133 231.132 99.9133C231.451 99.9133 231.749 99.7707 232.025 99.4855C232.301 99.2003 232.517 98.869 232.672 98.4915C232.827 98.114 232.952 97.7659 233.047 97.4471C233.142 97.1284 233.19 96.8977 233.19 96.7551C233.19 96.5622 233.155 96.3944 233.086 96.2518C233.017 96.1092 232.939 96.0001 232.853 95.9246C232.767 95.8492 232.689 95.7737 232.62 95.6982C232.551 95.6227 232.517 95.5304 232.517 95.4213C232.517 95.2368 232.599 95.0648 232.762 94.9055C232.926 94.7461 233.103 94.6664 233.293 94.6664C233.457 94.6664 233.604 94.7419 233.733 94.8929C233.863 95.0439 233.932 95.2871 233.94 95.6227C233.94 95.8492 233.888 96.1973 233.785 96.667C233.681 97.1368 233.522 97.6611 233.306 98.2399C233.09 98.8187 232.784 99.3178 232.387 99.7372C231.99 100.157 231.533 100.371 231.015 100.379C230.463 100.379 230.023 100.24 229.695 99.9637C229.376 99.6952 229.216 99.2968 229.216 98.7683C229.216 98.5083 229.251 98.2399 229.32 97.963C229.389 97.6862 229.566 97.1955 229.85 96.4909C230.04 95.954 230.135 95.6101 230.135 95.4591Z" fill="black" stroke="black" stroke-width="0.191165"/>
<path d="M238.48 96.2251C238.48 95.8811 238.554 95.5708 238.7 95.2939C238.847 95.0171 239.028 94.8032 239.244 94.6522C239.46 94.5012 239.671 94.3838 239.878 94.2999C240.085 94.216 240.266 94.1741 240.422 94.1741C240.439 94.1741 240.474 94.1741 240.525 94.1741C240.577 94.1741 240.62 94.1699 240.655 94.1615C240.991 94.1615 241.306 94.2244 241.6 94.3502C241.893 94.4761 242.311 94.7067 242.855 95.0423L243.502 95.4449C244.011 95.7385 244.486 95.8853 244.926 95.8853C245.409 95.8853 245.823 95.7637 246.168 95.5204C246.513 95.2772 246.707 94.9458 246.751 94.5264C246.751 94.4341 246.768 94.3502 246.802 94.2747C246.837 94.1992 246.88 94.1615 246.932 94.1615C247.053 94.1615 247.113 94.2915 247.113 94.5516C247.113 95.1052 246.91 95.5833 246.505 95.986C246.099 96.3886 245.581 96.5941 244.952 96.6025C244.598 96.6025 244.222 96.5145 243.826 96.3383C243.429 96.1621 243.084 95.965 242.79 95.7469C242.497 95.5288 242.152 95.3317 241.755 95.1555C241.358 94.9794 240.996 94.8871 240.668 94.8787C240.15 94.8787 239.723 95.0171 239.386 95.2939C239.05 95.5708 238.869 95.8853 238.843 96.2376C238.826 96.4809 238.765 96.6025 238.662 96.6025C238.541 96.6025 238.48 96.4767 238.48 96.2251ZM238.48 99.1694C238.48 98.8255 238.554 98.5151 238.7 98.2383C238.847 97.9615 239.028 97.7476 239.244 97.5966C239.46 97.4456 239.671 97.3281 239.878 97.2442C240.085 97.1604 240.266 97.1184 240.422 97.1184C240.439 97.1184 240.474 97.1184 240.525 97.1184C240.577 97.1184 240.62 97.1142 240.655 97.1058C240.991 97.1058 241.306 97.1688 241.6 97.2946C241.893 97.4204 242.311 97.6511 242.855 97.9866L243.502 98.3893C244.011 98.6829 244.486 98.8297 244.926 98.8297C245.409 98.8297 245.823 98.708 246.168 98.4648C246.513 98.2215 246.707 97.8902 246.751 97.4707C246.751 97.2275 246.811 97.1058 246.932 97.1058C247.053 97.1058 247.113 97.2401 247.113 97.5085C247.113 98.0453 246.91 98.5193 246.505 98.9303C246.099 99.3414 245.581 99.5469 244.952 99.5469C244.598 99.5469 244.222 99.4588 243.826 99.2826C243.429 99.1065 243.084 98.9094 242.79 98.6913C242.497 98.4732 242.152 98.276 241.755 98.0999C241.358 97.9237 240.996 97.8314 240.668 97.8231C240.15 97.8231 239.723 97.9615 239.386 98.2383C239.05 98.5151 238.869 98.8297 238.843 99.182C238.817 99.4252 238.757 99.5469 238.662 99.5469C238.541 99.5469 238.48 99.421 238.48 99.1694Z" fill="black" stroke="black" stroke-width="0.191165"/>
<path d="M265.023 97.0758C265.023 96.1111 265.312 95.1842 265.891 94.295C266.469 93.4059 267.198 92.7012 268.078 92.1811C268.958 91.6611 269.838 91.3968 270.718 91.3884C271.495 91.3884 272.111 91.6023 272.569 92.0302C272.646 92.114 272.711 92.1853 272.763 92.2441C272.815 92.3028 272.849 92.3447 272.866 92.3699L272.879 92.4076C272.905 92.4076 273.022 92.2986 273.229 92.0805C273.289 92.0302 273.354 91.9714 273.423 91.9043C273.492 91.8372 273.561 91.7701 273.63 91.703C273.699 91.6359 273.742 91.5898 273.759 91.5646L273.954 91.3759H274.031C274.152 91.3759 274.212 91.4052 274.212 91.4639C274.212 91.4975 274.074 92.0721 273.798 93.1878C273.488 94.3537 273.332 94.9409 273.332 94.9493C273.315 94.9913 273.294 95.0164 273.268 95.0248C273.242 95.0332 273.164 95.0416 273.035 95.05H272.828C272.776 94.9997 272.75 94.9619 272.75 94.9367C272.75 94.9284 272.754 94.899 272.763 94.8487C272.772 94.7983 272.78 94.7144 272.789 94.597C272.797 94.4796 272.802 94.3454 272.802 94.1944C272.802 93.5988 272.664 93.0787 272.388 92.6341C272.111 92.1895 271.641 91.963 270.977 91.9547C270.822 91.9547 270.653 91.9672 270.472 91.9924C270.291 92.0176 270.062 92.0721 269.786 92.156C269.51 92.2399 269.247 92.3573 268.997 92.5083C268.746 92.6593 268.475 92.8606 268.181 93.1123C267.888 93.3639 267.638 93.6617 267.431 94.0056C267.224 94.3496 267.021 94.7774 266.822 95.2891C266.624 95.8008 266.49 96.3628 266.421 96.9751C266.404 97.1261 266.395 97.2897 266.395 97.4659C266.395 97.8685 266.456 98.225 266.577 98.5354C266.697 98.8458 266.853 99.0848 267.042 99.2526C267.232 99.4204 267.448 99.563 267.69 99.6804C267.931 99.7978 268.155 99.8691 268.363 99.8943C268.57 99.9195 268.764 99.9362 268.945 99.9446C269.411 99.9446 269.838 99.8482 270.226 99.6552C270.614 99.4623 270.882 99.2148 271.029 98.9129C271.055 98.8458 271.119 98.6151 271.223 98.2208C271.326 97.8266 271.378 97.6043 271.378 97.5539C271.378 97.4868 271.322 97.4449 271.21 97.4281C271.098 97.4113 270.839 97.3987 270.433 97.3904H269.954C269.903 97.34 269.877 97.3065 269.877 97.2897C269.877 97.2729 269.885 97.1932 269.903 97.0506C269.937 96.9416 269.98 96.8619 270.032 96.8116H270.252C270.597 96.8283 271.201 96.8367 272.064 96.8367C272.409 96.8367 272.69 96.8367 272.905 96.8367C273.121 96.8367 273.276 96.8325 273.371 96.8241C273.466 96.8158 273.518 96.8158 273.526 96.8241C273.647 96.8241 273.708 96.8619 273.708 96.9374C273.708 96.9542 273.699 97.0129 273.682 97.1135C273.639 97.2729 273.595 97.361 273.552 97.3778C273.526 97.3862 273.462 97.3904 273.358 97.3904C273.186 97.3904 273.009 97.4029 272.828 97.4281C272.767 97.4533 272.724 97.491 272.698 97.5414C272.672 97.5917 272.612 97.8056 272.517 98.1831C272.439 98.4599 272.375 98.6948 272.323 98.8877C272.107 99.7433 271.986 100.184 271.96 100.209C271.943 100.226 271.922 100.234 271.896 100.234C271.809 100.234 271.689 100.15 271.533 99.9824C271.378 99.8146 271.279 99.6846 271.236 99.5923C271.236 99.5839 271.227 99.5839 271.21 99.5923C271.193 99.6007 271.167 99.6217 271.132 99.6552C270.494 100.234 269.631 100.523 268.544 100.523C267.5 100.523 266.654 100.2 266.007 99.5546C265.36 98.9087 265.032 98.0824 265.023 97.0758Z" fill="black" stroke="black" stroke-width="0.191165"/>
<path d="M278.289 92.3355C278.289 92.2852 278.043 92.2516 277.552 92.2348C277.345 92.2348 277.211 92.2306 277.15 92.2222C277.09 92.2138 277.06 92.1719 277.06 92.0964C277.06 92.088 277.068 92.0419 277.086 91.958C277.094 91.9328 277.103 91.9035 277.112 91.8699C277.12 91.8364 277.124 91.8154 277.124 91.807C277.124 91.7986 277.133 91.7776 277.15 91.7441C277.168 91.7105 277.176 91.698 277.176 91.7063C277.176 91.7147 277.194 91.7063 277.228 91.6812C277.263 91.656 277.284 91.6476 277.293 91.656C277.301 91.6644 277.336 91.6644 277.396 91.656C277.457 91.6476 277.508 91.6434 277.552 91.6434C277.603 91.6434 277.733 91.6434 277.94 91.6434C278.147 91.6434 278.341 91.6476 278.522 91.656C279.204 91.656 279.596 91.656 279.7 91.656C279.804 91.656 279.873 91.677 279.907 91.7189C279.916 91.7525 280.075 92.9353 280.386 95.2673L280.852 98.7778L281.15 98.3123C281.357 98.0103 281.633 97.5909 281.978 97.054C282.323 96.5171 282.703 95.9299 283.117 95.2924C284.627 92.952 285.39 91.7735 285.408 91.7567C285.416 91.7483 285.429 91.7357 285.446 91.7189C285.464 91.7022 285.481 91.6896 285.498 91.6812L285.576 91.656H286.818C286.965 91.656 287.138 91.656 287.336 91.656C287.534 91.656 287.66 91.6518 287.711 91.6434C288.005 91.6434 288.151 91.6896 288.151 91.7818C288.151 91.8238 288.138 91.8951 288.113 91.9957C288.087 92.0964 288.074 92.1509 288.074 92.1593C288.039 92.2097 287.88 92.2348 287.595 92.2348C287.25 92.2432 287.03 92.2558 286.935 92.2726C286.84 92.2893 286.762 92.3355 286.702 92.411C286.676 92.4529 286.365 93.6399 285.77 95.9719C285.175 98.3039 284.873 99.4825 284.864 99.5076C284.864 99.5412 284.868 99.5621 284.877 99.5705C284.886 99.5789 284.916 99.5957 284.968 99.6209C285.019 99.646 285.093 99.6544 285.188 99.646C285.282 99.6376 285.425 99.646 285.615 99.6712H286.016C286.068 99.7467 286.094 99.7928 286.094 99.8096C286.094 99.9438 286.063 100.07 286.003 100.187C285.96 100.229 285.891 100.25 285.796 100.25C285.753 100.25 285.576 100.246 285.265 100.237C284.955 100.229 284.558 100.225 284.075 100.225C283.548 100.225 283.151 100.225 282.884 100.225C282.616 100.225 282.465 100.229 282.431 100.237C282.284 100.237 282.211 100.195 282.211 100.112C282.211 100.095 282.219 100.036 282.237 99.9354C282.271 99.8012 282.306 99.7257 282.34 99.7089C282.375 99.6922 282.474 99.6796 282.638 99.6712C282.871 99.6712 283.13 99.6586 283.414 99.6334C283.535 99.6083 283.617 99.558 283.66 99.4825C283.678 99.4489 283.842 98.8365 284.152 97.6454C284.463 96.4542 284.769 95.2673 285.071 94.0845C285.373 92.9017 285.524 92.3103 285.524 92.3103L283.013 96.1984C281.322 98.8156 280.455 100.145 280.412 100.187C280.395 100.195 280.377 100.204 280.36 100.212C280.317 100.237 280.248 100.25 280.153 100.25C280.024 100.25 279.946 100.221 279.92 100.162C279.903 100.128 279.726 98.8282 279.389 96.2613L278.885 92.3984L278.005 95.7957C277.426 98.0271 277.137 99.1805 277.137 99.256C277.189 99.5328 277.5 99.6712 278.069 99.6712H278.199C278.25 99.7131 278.281 99.7509 278.289 99.7844C278.298 99.818 278.285 99.8935 278.25 100.011C278.216 100.145 278.181 100.221 278.147 100.237C278.112 100.246 278.065 100.25 278.005 100.25C277.987 100.25 277.936 100.25 277.849 100.25C277.763 100.25 277.616 100.246 277.409 100.237C277.202 100.229 276.926 100.225 276.581 100.225C276.322 100.225 276.055 100.229 275.778 100.237C275.502 100.246 275.343 100.25 275.3 100.25C275.17 100.25 275.088 100.242 275.054 100.225C275.019 100.208 275.002 100.17 275.002 100.112C275.002 100.095 275.015 100.036 275.041 99.9354C275.067 99.8348 275.088 99.7719 275.105 99.7467C275.123 99.6964 275.218 99.6712 275.39 99.6712C275.994 99.6712 276.378 99.5034 276.542 99.1679C276.577 99.1176 276.874 97.9935 277.435 95.7957C277.996 93.5979 278.281 92.4445 278.289 92.3355Z" fill="black" stroke="black" stroke-width="0.191165"/>
<path d="M293.625 90.8079C293.702 90.8079 293.767 90.833 293.819 90.8834C293.871 90.9337 293.896 90.9924 293.896 91.0595C293.896 91.1015 293.15 93.1231 291.658 97.1244C290.165 101.126 289.393 103.173 289.341 103.265C289.281 103.349 289.207 103.391 289.121 103.391C289.061 103.391 289.004 103.37 288.953 103.328C288.901 103.286 288.875 103.227 288.875 103.152C288.875 103.068 289.626 101.021 291.127 97.0112C292.628 93.0015 293.392 90.9756 293.418 90.9337C293.452 90.8498 293.521 90.8079 293.625 90.8079Z" fill="black" stroke="black" stroke-width="0.191165"/>
<path d="M294.895 96.6332C294.903 96.608 294.912 96.5744 294.92 96.5325C294.929 96.4905 294.951 96.3983 294.985 96.2557C295.02 96.1131 295.063 95.983 295.115 95.8656C295.166 95.7482 295.231 95.6098 295.309 95.4504C295.386 95.291 295.473 95.1652 295.568 95.0729C295.662 94.9806 295.775 94.8883 295.904 94.7961C296.033 94.7038 296.176 94.666 296.331 94.6828C296.581 94.6828 296.801 94.7332 296.991 94.8338C297.181 94.9345 297.315 95.0268 297.392 95.1106C297.47 95.1945 297.518 95.2784 297.535 95.3623C297.552 95.4126 297.565 95.4378 297.574 95.4378C297.582 95.4378 297.617 95.4084 297.677 95.3497C298.091 94.9135 298.57 94.6954 299.114 94.6954H299.153C299.567 94.6954 299.877 94.8674 300.084 95.2113C300.153 95.3707 300.188 95.5259 300.188 95.6769C300.188 95.9285 300.132 96.1298 300.02 96.2808C299.908 96.4318 299.795 96.5283 299.683 96.5702C299.571 96.6122 299.463 96.629 299.36 96.6206C299.187 96.6206 299.049 96.5744 298.946 96.4822C298.842 96.3899 298.79 96.2683 298.79 96.1173C298.79 95.7146 299.032 95.4462 299.515 95.312C299.325 95.2029 299.17 95.1484 299.049 95.1484C298.566 95.1484 298.122 95.4588 297.716 96.0795C297.63 96.2137 297.565 96.3521 297.522 96.4947C297.479 96.6373 297.332 97.1952 297.082 98.1682C296.788 99.3426 296.62 99.9676 296.577 100.043C296.465 100.27 296.279 100.383 296.021 100.383C295.908 100.383 295.818 100.358 295.749 100.307C295.68 100.257 295.632 100.207 295.606 100.156C295.58 100.106 295.572 100.064 295.58 100.03C295.58 99.9214 295.753 99.2 296.098 97.8663C296.443 96.5325 296.616 95.7901 296.616 95.6391C296.616 95.312 296.504 95.1484 296.279 95.1484C296.098 95.1484 295.943 95.2658 295.813 95.5007C295.684 95.7356 295.58 95.9914 295.503 96.2683C295.425 96.5451 295.378 96.6961 295.36 96.7212C295.343 96.738 295.274 96.7464 295.153 96.7464H294.972C294.92 96.6961 294.895 96.6583 294.895 96.6332Z" fill="black" stroke="black" stroke-width="0.191165"/>
<path d="M264.39 86.0892C264.528 86.0892 264.61 86.1647 264.635 86.3157C264.635 86.3577 263.432 90.0822 261.025 97.4893L257.388 108.65C257.328 108.709 257.224 108.738 257.077 108.738H256.922C256.913 108.713 256.909 108.692 256.909 108.675C256.909 108.659 256.9 108.638 256.883 108.612C256.866 108.587 256.857 108.55 256.857 108.499C256.857 108.449 256.84 108.39 256.806 108.323C256.771 108.256 256.741 108.159 256.715 108.034C256.689 107.908 256.65 107.765 256.598 107.606C256.547 107.446 256.486 107.245 256.417 107.002C256.348 106.759 256.271 106.49 256.184 106.197C256.098 105.903 255.994 105.551 255.874 105.14C255.753 104.729 255.619 104.288 255.472 103.818L254.062 99.0621L253.221 100.044L252.871 99.7164L254.178 98.1939L254.851 97.4389L257.543 106.524L264.157 86.2151C264.2 86.1312 264.277 86.0892 264.39 86.0892Z" fill="black" stroke="black" stroke-width="0.191165"/>
<path d="M300.46 86.8398H264.377V86.085H300.46V86.8398Z" fill="black" stroke="black" stroke-width="0.191165"/>
<rect x="246.24" y="20.2637" width="12.4257" height="9.15121" transform="rotate(38.9561 246.24 20.2637)" fill="#F7C325"/>
<rect x="246.24" y="20.2656" width="12.4257" height="9.15121" transform="rotate(38.9561 246.24 20.2656)" fill="#F7C325"/>
<rect x="249.527" y="19.2344" width="8.60241" height="2.86747" transform="rotate(38.9561 249.527 19.2344)" fill="#F7C325"/>
<rect x="241.432" y="26.2109" width="12.4257" height="13.3815" transform="rotate(38.9561 241.432 26.2109)" fill="#F7C325"/>
<rect x="249.812" y="21.9238" width="4.77912" height="24.8514" transform="rotate(38.9561 249.812 21.9238)" fill="#F7C325"/>
<rect x="257.391" y="29.2773" width="26.7631" height="15.2932" transform="rotate(38.9561 257.391 29.2773)" fill="white"/>
<line x1="261.665" y1="32.7359" x2="252.05" y2="44.6283" stroke="black" stroke-width="1.43374"/>
<line x1="267.608" y1="37.5406" x2="257.993" y2="49.433" stroke="black" stroke-width="1.43374"/>
<line x1="273.556" y1="42.3452" x2="263.94" y2="54.2376" stroke="black" stroke-width="1.43374"/>
<line x1="254.236" y1="33.173" x2="275.048" y2="49.9996" stroke="black" stroke-width="1.43373"/>
<line x1="250.63" y1="37.6398" x2="271.442" y2="54.4664" stroke="black" stroke-width="1.43373"/>
<rect x="223.939" y="2.22852" width="26.7631" height="15.2932" transform="rotate(38.9561 223.939 2.22852)" fill="white"/>
<line x1="228.216" y1="5.68704" x2="218.6" y2="17.5794" stroke="black" stroke-width="1.43374"/>
<line x1="234.159" y1="10.4917" x2="224.544" y2="22.3841" stroke="black" stroke-width="1.43374"/>
<line x1="240.106" y1="15.2964" x2="230.491" y2="27.1888" stroke="black" stroke-width="1.43374"/>
<line x1="220.787" y1="6.12418" x2="241.598" y2="22.9508" stroke="black" stroke-width="1.43373"/>
<line x1="217.181" y1="10.591" x2="237.993" y2="27.4176" stroke="black" stroke-width="1.43373"/>
<path d="M237.416 52.6945C240.01 49.487 239.512 44.7843 236.305 42.1907C233.097 39.5971 228.394 40.0947 225.801 43.3021L237.416 52.6945Z" fill="#F7C325"/>
<path d="M232.439 47.2109L229.435 50.9273" stroke="#F7C325" stroke-width="1.43374"/>
<path d="M238.785 29.4824L243.267 33.1057L239.288 38.026L234.807 34.4027" stroke="#333333"/>
<path d="M227.347 50.4729C228.011 49.6519 229.214 49.5244 230.035 50.1882C230.856 50.852 230.984 52.0557 230.32 52.8767C229.656 53.6977 228.453 53.8251 227.632 53.1613C226.811 52.4975 226.683 51.2939 227.347 50.4729Z" fill="#F7C325"/>
<line x1="239.794" y1="25.1925" x2="252.43" y2="35.4087" stroke="#F7C325" stroke-width="1.43373"/>
<mask id="mask1_3008_219202" style="mask-type:alpha" maskUnits="userSpaceOnUse" x="202" y="51" width="27" height="28">
<path d="M228.735 51.8915L221.6 78.5209L202.106 59.0268L228.735 51.8915Z" fill="#F7C325"/>
</mask>
<g mask="url(#mask1_3008_219202)">
<path fill-rule="evenodd" clip-rule="evenodd" d="M223.737 56.887C225.114 58.2638 227.347 58.2638 228.724 56.887C230.1 55.5101 230.1 53.2777 228.724 51.9008C227.347 50.5239 225.114 50.5239 223.737 51.9008C222.361 53.2777 222.361 55.5101 223.737 56.887ZM222.479 58.1455C224.551 60.2175 227.91 60.2175 229.982 58.1455C232.054 56.0735 232.054 52.7142 229.982 50.6422C227.91 48.5703 224.551 48.5703 222.479 50.6422C220.407 52.7142 220.407 56.0735 222.479 58.1455Z" fill="#F7C325"/>
<path fill-rule="evenodd" clip-rule="evenodd" d="M220.611 60.0121C223.715 63.1156 228.746 63.1156 231.85 60.0121C234.953 56.9086 234.953 51.8768 231.85 48.7732C228.746 45.6697 223.715 45.6697 220.611 48.7732C217.508 51.8768 217.508 56.9086 220.611 60.0121ZM219.352 61.2707C223.151 65.0693 229.31 65.0693 233.108 61.2707C236.907 57.472 236.907 51.3133 233.108 47.5147C229.31 43.7161 223.151 43.7161 219.352 47.5147C215.554 51.3133 215.554 57.472 219.352 61.2707Z" fill="#F7C325"/>
<path fill-rule="evenodd" clip-rule="evenodd" d="M217.485 63.1392C222.315 67.9694 230.146 67.9694 234.976 63.1392C239.806 58.3091 239.806 50.4778 234.976 45.6476C230.146 40.8175 222.315 40.8175 217.485 45.6476C212.655 50.4778 212.655 58.3091 217.485 63.1392ZM216.226 64.3978C221.751 69.923 230.71 69.923 236.235 64.3978C241.76 58.8725 241.76 49.9143 236.235 44.3891C230.71 38.8639 221.751 38.8639 216.226 44.3891C210.701 49.9143 210.701 58.8725 216.226 64.3978Z" fill="#F7C325"/>
</g>
</g>
<defs>
<clipPath id="clip0_3008_219202">
<rect width="309" height="312" fill="white"/>
</clipPath>
</defs>
</svg>
